<?xml version="1.0" encoding="UTF-8"?>
<svg width="228px" height="44px" viewBox="0 0 228 44" version="1.1" xmlns="http://www.w3.org/2000/svg" xmlns:xlink="http://www.w3.org/1999/xlink">
    <title>Group 5</title>
    <g id="roofing-service" stroke="none" stroke-width="1" fill="none" fill-rule="evenodd">
        <g id="HP" transform="translate(-129.000000, -34.000000)">
            <g id="Group-5" transform="translate(130.000000, 34.000000)">
                <path d="M61.3671875,28.953125 L61.3671875,23.796875 L68.046875,23.796875 L68.046875,28.953125 L69.4140625,28.953125 L69.4140625,17.234375 L68.046875,17.234375 L68.046875,22.546875 L61.3671875,22.546875 L61.3671875,17.234375 L60,17.234375 L60,28.953125 L61.3671875,28.953125 Z M74.25,28.953125 L75.4453125,25.8984375 L80.8203125,25.8984375 L82.015625,28.953125 L83.484375,28.953125 L78.90625,17.234375 L77.3984375,17.234375 L72.8203125,28.953125 L74.25,28.953125 Z M80.3359375,24.6484375 L75.9296875,24.6484375 L77.1328125,21.5703125 C77.3463542,21.0234375 77.53125,20.5338542 77.6875,20.1015625 C77.84375,19.6692708 77.9921875,19.2317708 78.1328125,18.7890625 C78.2786458,19.2317708 78.4283854,19.6692708 78.5820312,20.1015625 C78.7356771,20.5338542 78.9192708,21.0234375 79.1328125,21.5703125 L79.1328125,21.5703125 L80.3359375,24.6484375 Z M88.2578125,28.953125 L88.2578125,18.9765625 L92.0234375,27.0390625 L93.53125,27.0390625 L97.28125,18.9921875 L97.28125,28.953125 L98.6484375,28.953125 L98.6484375,17.234375 L96.6328125,17.234375 L92.796875,25.46875 L88.953125,17.234375 L86.890625,17.234375 L86.890625,28.953125 L88.2578125,28.953125 Z M104.515625,28.953125 L104.515625,17.234375 L103.148438,17.234375 L103.148438,28.953125 L104.515625,28.953125 Z M115.890625,28.953125 L115.890625,27.703125 L110.382812,27.703125 L110.382812,17.234375 L109.015625,17.234375 L109.015625,28.953125 L115.890625,28.953125 Z M122.085938,28.953125 L122.085938,18.484375 L125.703125,18.484375 L125.703125,17.234375 L117.109375,17.234375 L117.109375,18.484375 L120.726562,18.484375 L120.726562,28.953125 L122.085938,28.953125 Z M134.734375,29.1875 C135.614583,29.1875 136.425781,29.0364583 137.167969,28.734375 C137.910156,28.4322917 138.554688,28.0078125 139.101562,27.4609375 C139.648438,26.9140625 140.072917,26.2695312 140.375,25.5273438 C140.677083,24.7851562 140.828125,23.9739583 140.828125,23.09375 C140.828125,22.2135417 140.677083,21.4023438 140.375,20.6601562 C140.072917,19.9179688 139.648438,19.2734375 139.101562,18.7265625 C138.554688,18.1796875 137.910156,17.7552083 137.167969,17.453125 C136.425781,17.1510417 135.614583,17 134.734375,17 C133.854167,17 133.042969,17.1510417 132.300781,17.453125 C131.558594,17.7552083 130.914062,18.1796875 130.367188,18.7265625 C129.820312,19.2734375 129.395833,19.9179688 129.09375,20.6601562 C128.791667,21.4023438 128.640625,22.2135417 128.640625,23.09375 C128.640625,23.9739583 128.791667,24.7851562 129.09375,25.5273438 C129.395833,26.2695312 129.820312,26.9140625 130.367188,27.4609375 C130.914062,28.0078125 131.558594,28.4322917 132.300781,28.734375 C133.042969,29.0364583 133.854167,29.1875 134.734375,29.1875 Z M134.734375,27.9375 C133.833333,27.9375 133.028646,27.7278646 132.320312,27.3085938 C131.611979,26.8893229 131.05599,26.3138021 130.652344,25.5820312 C130.248698,24.8502604 130.046875,24.0208333 130.046875,23.09375 C130.046875,22.1614583 130.248698,21.3307292 130.652344,20.6015625 C131.05599,19.8723958 131.611979,19.2981771 132.320312,18.8789062 C133.028646,18.4596354 133.833333,18.25 134.734375,18.25 C135.635417,18.25 136.438802,18.4596354 137.144531,18.8789062 C137.85026,19.2981771 138.40625,19.8723958 138.8125,20.6015625 C139.21875,21.3307292 139.421875,22.1614583 139.421875,23.09375 C139.421875,24.0208333 139.21875,24.8502604 138.8125,25.5820312 C138.40625,26.3138021 137.85026,26.8893229 137.144531,27.3085938 C136.438802,27.7278646 135.635417,27.9375 134.734375,27.9375 Z M146.03125,28.953125 L146.03125,19.421875 L153.304688,28.953125 L154.671875,28.953125 L154.671875,17.234375 L153.304688,17.234375 L153.304688,26.765625 L146.03125,17.234375 L144.703125,17.234375 L144.703125,28.953125 L146.03125,28.953125 Z M166.601562,28.953125 L166.601562,23.953125 L169.015625,23.953125 L171.898438,28.953125 L173.484375,28.953125 L170.484375,23.7578125 C171.276042,23.5442708 171.888021,23.1640625 172.320312,22.6171875 C172.752604,22.0703125 172.96875,21.390625 172.96875,20.578125 C172.96875,19.53125 172.611979,18.7122396 171.898438,18.1210938 C171.184896,17.5299479 170.195312,17.234375 168.929688,17.234375 L168.929688,17.234375 L165.234375,17.234375 L165.234375,28.953125 L166.601562,28.953125 Z M168.648438,22.703125 L166.601562,22.703125 L166.601562,18.484375 L168.648438,18.484375 C169.601562,18.484375 170.325521,18.6627604 170.820312,19.0195312 C171.315104,19.3763021 171.5625,19.8984375 171.5625,20.5859375 C171.5625,21.2786458 171.313802,21.8046875 170.816406,22.1640625 C170.31901,22.5234375 169.596354,22.703125 168.648438,22.703125 L168.648438,22.703125 Z M182.75,29.1875 C183.630208,29.1875 184.441406,29.0364583 185.183594,28.734375 C185.925781,28.4322917 186.570312,28.0078125 187.117188,27.4609375 C187.664062,26.9140625 188.088542,26.2695312 188.390625,25.5273438 C188.692708,24.7851562 188.84375,23.9739583 188.84375,23.09375 C188.84375,22.2135417 188.692708,21.4023438 188.390625,20.6601562 C188.088542,19.9179688 187.664062,19.2734375 187.117188,18.7265625 C186.570312,18.1796875 185.925781,17.7552083 185.183594,17.453125 C184.441406,17.1510417 183.630208,17 182.75,17 C181.869792,17 181.058594,17.1510417 180.316406,17.453125 C179.574219,17.7552083 178.929688,18.1796875 178.382812,18.7265625 C177.835938,19.2734375 177.411458,19.9179688 177.109375,20.6601562 C176.807292,21.4023438 176.65625,22.2135417 176.65625,23.09375 C176.65625,23.9739583 176.807292,24.7851562 177.109375,25.5273438 C177.411458,26.2695312 177.835938,26.9140625 178.382812,27.4609375 C178.929688,28.0078125 179.574219,28.4322917 180.316406,28.734375 C181.058594,29.0364583 181.869792,29.1875 182.75,29.1875 Z M182.75,27.9375 C181.848958,27.9375 181.044271,27.7278646 180.335938,27.3085938 C179.627604,26.8893229 179.071615,26.3138021 178.667969,25.5820312 C178.264323,24.8502604 178.0625,24.0208333 178.0625,23.09375 C178.0625,22.1614583 178.264323,21.3307292 178.667969,20.6015625 C179.071615,19.8723958 179.627604,19.2981771 180.335938,18.8789062 C181.044271,18.4596354 181.848958,18.25 182.75,18.25 C183.651042,18.25 184.454427,18.4596354 185.160156,18.8789062 C185.865885,19.2981771 186.421875,19.8723958 186.828125,20.6015625 C187.234375,21.3307292 187.4375,22.1614583 187.4375,23.09375 C187.4375,24.0208333 187.234375,24.8502604 186.828125,25.5820312 C186.421875,26.3138021 185.865885,26.8893229 185.160156,27.3085938 C184.454427,27.7278646 183.651042,27.9375 182.75,27.9375 Z M198.1875,29.1875 C199.067708,29.1875 199.878906,29.0364583 200.621094,28.734375 C201.363281,28.4322917 202.007812,28.0078125 202.554688,27.4609375 C203.101562,26.9140625 203.526042,26.2695312 203.828125,25.5273438 C204.130208,24.7851562 204.28125,23.9739583 204.28125,23.09375 C204.28125,22.2135417 204.130208,21.4023438 203.828125,20.6601562 C203.526042,19.9179688 203.101562,19.2734375 202.554688,18.7265625 C202.007812,18.1796875 201.363281,17.7552083 200.621094,17.453125 C199.878906,17.1510417 199.067708,17 198.1875,17 C197.307292,17 196.496094,17.1510417 195.753906,17.453125 C195.011719,17.7552083 194.367188,18.1796875 193.820312,18.7265625 C193.273438,19.2734375 192.848958,19.9179688 192.546875,20.6601562 C192.244792,21.4023438 192.09375,22.2135417 192.09375,23.09375 C192.09375,23.9739583 192.244792,24.7851562 192.546875,25.5273438 C192.848958,26.2695312 193.273438,26.9140625 193.820312,27.4609375 C194.367188,28.0078125 195.011719,28.4322917 195.753906,28.734375 C196.496094,29.0364583 197.307292,29.1875 198.1875,29.1875 Z M198.1875,27.9375 C197.286458,27.9375 196.481771,27.7278646 195.773438,27.3085938 C195.065104,26.8893229 194.509115,26.3138021 194.105469,25.5820312 C193.701823,24.8502604 193.5,24.0208333 193.5,23.09375 C193.5,22.1614583 193.701823,21.3307292 194.105469,20.6015625 C194.509115,19.8723958 195.065104,19.2981771 195.773438,18.8789062 C196.481771,18.4596354 197.286458,18.25 198.1875,18.25 C199.088542,18.25 199.891927,18.4596354 200.597656,18.8789062 C201.303385,19.2981771 201.859375,19.8723958 202.265625,20.6015625 C202.671875,21.3307292 202.875,22.1614583 202.875,23.09375 C202.875,24.0208333 202.671875,24.8502604 202.265625,25.5820312 C201.859375,26.3138021 201.303385,26.8893229 200.597656,27.3085938 C199.891927,27.7278646 199.088542,27.9375 198.1875,27.9375 Z M209.523438,28.953125 L209.523438,23.6328125 L214.578125,23.6328125 L214.578125,22.3828125 L209.523438,22.3828125 L209.523438,18.484375 L214.875,18.484375 L214.875,17.234375 L208.15625,17.234375 L208.15625,28.953125 L209.523438,28.953125 Z M221.960938,29.1875 C222.742188,29.1875 223.440104,29.0390625 224.054688,28.7421875 C224.669271,28.4453125 225.154948,28.0390625 225.511719,27.5234375 C225.86849,27.0078125 226.046875,26.421875 226.046875,25.765625 C226.046875,25.2708333 225.949219,24.8450521 225.753906,24.4882812 C225.558594,24.1315104 225.299479,23.8229167 224.976562,23.5625 C224.653646,23.3020833 224.296875,23.0729167 223.90625,22.875 C223.515625,22.6770833 223.125,22.4895833 222.734375,22.3125 C222.296875,22.1145833 221.885417,21.9140625 221.5,21.7109375 C221.114583,21.5078125 220.802083,21.2708333 220.5625,21 C220.322917,20.7291667 220.203125,20.3958333 220.203125,20 C220.203125,19.4375 220.438802,19.0052083 220.910156,18.703125 C221.38151,18.4010417 221.947917,18.25 222.609375,18.25 C222.979167,18.25 223.359375,18.2994792 223.75,18.3984375 C224.140625,18.4973958 224.518229,18.6536458 224.882812,18.8671875 L224.882812,18.8671875 L225.4375,17.6953125 C224.947917,17.4557292 224.455729,17.2799479 223.960938,17.1679688 C223.466146,17.0559896 222.989583,17 222.53125,17 C221.838542,17 221.209635,17.1210938 220.644531,17.3632812 C220.079427,17.6054688 219.630208,17.953125 219.296875,18.40625 C218.963542,18.859375 218.796875,19.4036458 218.796875,20.0390625 C218.796875,20.5130208 218.888021,20.9192708 219.070312,21.2578125 C219.252604,21.5963542 219.496094,21.8893229 219.800781,22.1367188 C220.105469,22.3841146 220.445312,22.6028646 220.820312,22.7929688 C221.195312,22.9830729 221.572917,23.1640625 221.953125,23.3359375 C222.411458,23.5390625 222.845052,23.7513021 223.253906,23.9726562 C223.66276,24.1940104 223.994792,24.453125 224.25,24.75 C224.505208,25.046875 224.632812,25.4166667 224.632812,25.859375 C224.632812,26.2916667 224.510417,26.6627604 224.265625,26.9726562 C224.020833,27.2825521 223.696615,27.5208333 223.292969,27.6875 C222.889323,27.8541667 222.450521,27.9375 221.976562,27.9375 C221.486979,27.9375 220.989583,27.8398438 220.484375,27.6445312 C219.979167,27.4492188 219.526042,27.1432292 219.125,26.7265625 L219.125,26.7265625 L218.4375,27.9375 C218.963542,28.3645833 219.53125,28.6796875 220.140625,28.8828125 C220.75,29.0859375 221.356771,29.1875 221.960938,29.1875 Z" id="HAMILTONROOFS" stroke="#2C393F" stroke-width="0.7" fill="#2D3137" fill-rule="nonzero"></path>
                <g id="Group-3">
                    <circle id="Oval" fill="#F37A1F" cx="22.5" cy="21.5" r="21.5"></circle>
                    <polygon id="Path-12" stroke="#FFFFFF" fill="#FFFFFF" fill-rule="nonzero" points="0 22.9894773 13.9425778 12 30 23.2704041 30 43 27.7888584 43 27.7883056 24.3437468 14.0206324 14.6811583 1.40474761 24.6255329"></polygon>
                </g>
            </g>
        </g>
    </g>
</svg>